<?xml version="1.0" standalone="no"?><!DOCTYPE svg PUBLIC "-//W3C//DTD SVG 1.1//EN" "http://www.w3.org/Graphics/SVG/1.1/DTD/svg11.dtd"><svg t="1767144119423" class="icon" viewBox="0 0 1024 1024" version="1.1" xmlns="http://www.w3.org/2000/svg" p-id="7718" xmlns:xlink="http://www.w3.org/1999/xlink" width="32" height="32"><path d="M881.776 800a32 32 0 0 1 1 63.984l-1 0.016H142.224a32 32 0 0 1-1-63.984l1-0.016h739.552zM608 128a32 32 0 0 1 1 63.984L608 192h-64L544 257.44c172.832 15.596 310.244 156.28 319.5 331.72l0.076 1.676 0.04 0.24c0.136 0.86 0.236 1.724 0.296 2.6l0.068 1.32 0.016 1.004v140a32 32 0 0 1-31 31.984L832 768H192a32 32 0 0 1-31.984-31L160 736v-140c0-1.26 0.072-2.5 0.216-3.72l0.192-1.388 0.328-5.8c11.16-173.684 147.892-312.184 319.264-327.656V192h-64a32 32 0 0 1-1-63.984L416 128h192z m-96 192c-152.216 0-277.68 118.396-287.384 268.928l-0.26 4.568-0.156 3.808-0.056 1.012-0.088 1-0.056 0.464V704h576v-104.264l-0.064-0.548-0.08-1-0.264-5.64C791.56 440.3 665.48 320 512 320z m39.664 47.384c88.572 15.272 160.504 80.888 184.136 167.28a32 32 0 0 1-61.736 16.888c-16.92-61.864-68.2-109.104-131.36-120.76l-1.92-0.34a32 32 0 1 1 10.88-63.068z" fill="#2c2c2c" p-id="7719"></path></svg>