<?xml version="1.0" standalone="no"?><!DOCTYPE svg PUBLIC "-//W3C//DTD SVG 1.1//EN" "http://www.w3.org/Graphics/SVG/1.1/DTD/svg11.dtd"><svg t="1767144147494" class="icon" viewBox="0 0 1024 1024" version="1.1" xmlns="http://www.w3.org/2000/svg" p-id="8931" xmlns:xlink="http://www.w3.org/1999/xlink" width="32" height="32"><path d="M847.928889 284.444444a56.888889 56.888889 0 0 1 56.661333 62.037334l-46.563555 512A56.888889 56.888889 0 0 1 801.393778 910.222222H222.606222a56.888889 56.888889 0 0 1-56.632889-51.740444l-46.563555-512A56.888889 56.888889 0 0 1 176.071111 284.444444h671.857778z m0 56.888889H176.071111l46.535111 512h578.787556l46.535111-512z" fill="#2c2c2c" p-id="8932"></path><path d="M341.333333 711.111111h341.333334v56.888889H341.333333z" fill="#2c2c2c" p-id="8933"></path><path d="M512 85.333333a227.555556 227.555556 0 0 1 227.441778 220.444445L739.555556 312.888889v113.777778h-56.888889v-113.777778a170.666667 170.666667 0 0 0-341.219556-6.4L341.333333 312.888889v113.777778h-56.888889v-113.777778a227.555556 227.555556 0 0 1 227.555556-227.555556z" fill="#2c2c2c" p-id="8934"></path></svg>